<?xml version="1.0" standalone="no"?><!DOCTYPE svg PUBLIC "-//W3C//DTD SVG 1.1//EN" "http://www.w3.org/Graphics/SVG/1.1/DTD/svg11.dtd"><svg t="1568175719592" class="icon" viewBox="0 0 1024 1024" version="1.1" xmlns="http://www.w3.org/2000/svg" p-id="643" width="32" height="32" xmlns:xlink="http://www.w3.org/1999/xlink"><defs><style type="text/css"></style></defs><path d="M960 288H64C44.8 288 32 275.2 32 256s12.8-32 32-32h896c19.2 0 32 12.8 32 32s-12.8 32-32 32zM960 544H64C44.8 544 32 531.2 32 512s12.8-32 32-32h896c19.2 0 32 12.8 32 32s-12.8 32-32 32zM960 800H64c-19.2 0-32-12.8-32-32s12.8-32 32-32h896c19.2 0 32 12.8 32 32s-12.8 32-32 32z" fill="#000000" p-id="644"></path></svg>